<svg width="45" height="45" viewBox="0 0 45 45" fill="none" xmlns="http://www.w3.org/2000/svg">
<g clip-path="url(#clip0_4406_1337)">
<path d="M43.6813 45H1.31835C0.590269 45 0 44.4097 0 43.6816C0 42.9535 0.590269 42.3633 1.31835 42.3633H43.6813C44.4094 42.3633 44.9996 42.9535 44.9996 43.6816C44.9996 44.4097 44.4094 45 43.6813 45Z" fill="#BF930F"/>
<path d="M9.3144 45H4.04101C3.31293 45 2.72266 44.4097 2.72266 43.6817V34.0138C2.72266 32.8022 3.70834 31.8165 4.9199 31.8165H8.4355C9.64707 31.8165 10.6328 32.8022 10.6328 34.0138V43.6817C10.6328 44.4097 10.0425 45 9.3144 45ZM5.35935 42.3633H7.99605V34.4532H5.35935V42.3633Z" fill="#BF930F"/>
<path d="M19.8613 45H14.5879C13.8598 45 13.2695 44.4097 13.2695 43.6816V30.8497C13.2695 29.6382 14.2552 28.6525 15.4668 28.6525H18.9824C20.1939 28.6525 21.1796 29.6382 21.1796 30.8497V43.6816C21.1796 44.4097 20.5894 45 19.8613 45ZM15.9062 42.3633H18.5429V31.2892H15.9062V42.3633Z" fill="#BF930F"/>
<path d="M30.4082 45H25.1348C24.4067 45 23.8164 44.4097 23.8164 43.6816V26.0157C23.8164 24.8042 24.8021 23.8185 26.0137 23.8185H29.5293C30.7408 23.8185 31.7265 24.8042 31.7265 26.0157V43.6816C31.7265 44.4097 31.1362 45 30.4082 45ZM26.4531 42.3633H29.0898V26.4552H26.4531V42.3633Z" fill="#BF930F"/>
<path d="M40.9589 45H35.6855C34.9575 45 34.3672 44.4097 34.3672 43.6817V17.2268C34.3672 16.0152 35.3529 15.0295 36.5644 15.0295H40.08C41.2916 15.0295 42.2773 16.0152 42.2773 17.2268V43.6817C42.2773 44.4097 41.687 45 40.9589 45ZM37.0039 42.3633H39.6406V17.6662H37.0039V42.3633Z" fill="#BF930F"/>
<path d="M1.31835 28.3276C0.590269 28.3276 0 27.7373 0 27.0092C0 26.2812 0.590269 25.6909 1.31835 25.6909C9.07077 25.6909 17.5115 22.8679 25.0856 17.7418C32.0536 13.0261 37.606 6.84394 40.319 0.780496C40.6164 0.115872 41.3963 -0.181899 42.0608 0.115609C42.7254 0.41294 43.0231 1.19279 42.7257 1.85741C39.8177 8.35661 33.9268 14.9422 26.5635 19.9255C18.5577 25.3436 9.59204 28.3276 1.31835 28.3276Z" fill="#BF930F"/>
<path d="M43.682 10.6942C43.0998 10.6942 42.5672 10.3057 42.4094 9.71668L40.5917 2.93325L33.8083 4.7509C33.1048 4.93951 32.3821 4.52204 32.1937 3.81874C32.0053 3.11544 32.4226 2.39255 33.1258 2.20411L41.1827 0.0452731C41.8863 -0.143251 42.6089 0.274226 42.7973 0.977434L44.9562 9.0343C45.1446 9.7376 44.7273 10.4605 44.024 10.6489C43.9097 10.6795 43.7949 10.6942 43.682 10.6942Z" fill="#BF930F"/>
</g>
<defs>
<clipPath id="clip0_4406_1337">
<rect width="45" height="45" fill="white"/>
</clipPath>
</defs>
</svg>
