<svg width="44" height="45" viewBox="0 0 44 45" fill="none" xmlns="http://www.w3.org/2000/svg">
<path d="M22.0216 0L41.0929 11.0108V33.0325L22.0216 44.0433L2.95034 33.0325V11.0108L22.0216 0Z" fill="#BF930F"/>
<g clip-path="url(#clip0_4406_1844)">
<path d="M20.9688 16.2893V21.7268L25.1854 24.2776L26.0479 22.8518L22.6354 20.7868V16.2893H20.9688Z" fill="white"/>
<path d="M30.1341 12.956V15.7576C28.3099 12.9926 25.2258 11.2893 21.8008 11.2893C16.2866 11.2893 11.8008 15.7751 11.8008 21.2893H13.4674C13.4674 16.6943 17.2058 12.956 21.8008 12.956C24.8341 12.956 27.5508 14.5568 29.0216 17.1226H25.9674V18.7893H30.1341C31.0533 18.7893 31.8008 18.0418 31.8008 17.1226V12.956H30.1341Z" fill="white"/>
<path d="M21.8008 29.6226C18.7674 29.6226 16.0508 28.0218 14.5799 25.456H17.6341V23.7893H13.4674C12.5483 23.7893 11.8008 24.5368 11.8008 25.456V29.6226H13.4674V26.821C15.2916 29.5868 18.3766 31.2893 21.8008 31.2893C27.3149 31.2893 31.8008 26.8035 31.8008 21.2893H30.1341C30.1341 25.8843 26.3958 29.6226 21.8008 29.6226Z" fill="white"/>
</g>
<defs>
<clipPath id="clip0_4406_1844">
<rect width="20" height="20" fill="white" transform="translate(11.8008 11.2893)"/>
</clipPath>
</defs>
</svg>
